<?xml version="1.0" encoding="utf-8"?>
<!-- Generator: Adobe Illustrator 21.1.0, SVG Export Plug-In . SVG Version: 6.00 Build 0)  -->
<svg version="1.1" id="레이어_1" xmlns="http://www.w3.org/2000/svg" xmlns:xlink="http://www.w3.org/1999/xlink" x="0px"
	 y="0px" viewBox="0 0 1417.3 1417.3" style="enable-background:new 0 0 1417.3 1417.3;" xml:space="preserve">
<path class="st0" d="M1177.6,736.8L724.2,261.8c-8.1-8.5-23.1-8.5-31.2,0L239.7,736.8c-6,6.3-7.6,15.5-4.2,23.4
	c3.5,7.9,11.2,13.1,19.9,13.1h107.9v367c0,11.9,9.7,21.6,21.6,21.6h215.9c11.9,0,21.6-9.7,21.6-21.6V914.1
	c0-11.9,9.7-21.6,21.6-21.6h129.5c11.9,0,21.6,9.7,21.6,21.6v226.2c0,11.9,9.7,21.6,21.6,21.6h215.9c11.9,0,21.6-9.7,21.6-21.6v-367
	H1162c8.6,0,16.4-5.2,19.9-13.1C1185.2,752.2,1183.5,743.1,1177.6,736.8z"/>
</svg>
