<?xml version="1.0" encoding="utf-8"?>
<!-- Generator: Adobe Illustrator 21.1.0, SVG Export Plug-In . SVG Version: 6.00 Build 0)  -->
<svg version="1.1" id="레이어_1" xmlns="http://www.w3.org/2000/svg" xmlns:xlink="http://www.w3.org/1999/xlink" x="0px"
	 y="0px" viewBox="0 0 1417.3 1417.3" style="enable-background:new 0 0 1417.3 1417.3;" xml:space="preserve">
<g id="레이어_1_1_">
	<title>3Artboard 68</title>
	<path class="st0" d="M1039.7,288.6h-661c-29.8,0-56,25-56,56v729c0,29.8,25,56,56,56h661.1c29.8,0,56-25,56-56v-729
		C1095.7,313.6,1070.7,288.6,1039.7,288.6z M450.1,454.2c0-10.7,9.5-20.2,20.2-20.2h191.8c10.7,0,20.2,9.5,20.2,20.2v169.1
		c0,10.7-9.5,20.2-20.2,20.2H470.4c-10.7,0-20.2-9.5-20.2-20.2L450.1,454.2L450.1,454.2z M946.8,984.2H470.4
		c-10.7,0-20.2-9.5-20.2-20.2s9.5-20.2,20.2-20.2h476.5c10.7,0,20.2,9.5,20.2,20.2S959.9,984.2,946.8,984.2z M946.8,804.4H470.4
		c-10.7,0-20.2-9.5-20.2-20.2s9.5-20.2,20.2-20.2h476.5c10.7,0,20.2,9.5,20.2,20.2S959.9,804.4,946.8,804.4z M946.8,644.7H756.3
		c-10.7,0-20.2-9.5-20.2-20.2s9.5-20.2,20.2-20.2h190.6c10.7,0,20.2,9.5,20.2,20.2C968.3,635.2,959.9,644.7,946.8,644.7z M946.8,478
		H756.3c-10.7,0-20.2-9.5-20.2-20.2s9.5-20.2,20.2-20.2h190.6c10.7,0,20.2,9.5,20.2,20.2C968.3,467.3,959.9,478,946.8,478z"/>
</g>
<g id="레이어_2">
</g>
</svg>
