<?xml version="1.0" encoding="utf-8"?>
<!-- Generator: Adobe Illustrator 21.1.0, SVG Export Plug-In . SVG Version: 6.00 Build 0)  -->
<svg version="1.1" id="레이어_1" xmlns="http://www.w3.org/2000/svg" xmlns:xlink="http://www.w3.org/1999/xlink" x="0px"
	 y="0px" viewBox="0 0 1417.3 1417.3" style="enable-background:new 0 0 1417.3 1417.3;" xml:space="preserve">
<path class="st0" d="M1128.4,1047.6L892.7,812.9c93.5-132.2,80.5-317.2-37.8-435.5c-131.3-132.2-346-134.2-478.3-2
	c-143.2,143.2-131.3,381.8,31.8,509.1c119.3,93.5,283.4,95.5,403.7,8.9l234.7,234.7c15.9,15.9,42.8,15.9,58.7,0l21.9-21.9
	C1144.3,1090.4,1144.3,1063.5,1128.4,1047.6z M781.4,801c-91.5,82.5-230.7,83.5-325.1,5c-111.4-94.5-117.3-263.5-14.9-364.9
	c97.4-97.4,253.6-95.5,350,1C890.7,540.5,887.7,704.6,781.4,801z"/>
</svg>
