<?xml version="1.0" encoding="utf-8"?>
<!-- Generator: Adobe Illustrator 21.1.0, SVG Export Plug-In . SVG Version: 6.00 Build 0)  -->
<svg version="1.1" id="레이어_1" xmlns="http://www.w3.org/2000/svg" xmlns:xlink="http://www.w3.org/1999/xlink" x="0px"
	 y="0px" viewBox="0 0 1417.3 1417.3" style="enable-background:new 0 0 1417.3 1417.3;" xml:space="preserve">
<path class="st0" d="M258,1038.2c0,42.6,34.7,77.3,77.3,77.3h667.4c21.2,0,34.3-8.9,41.5-16.4c16.6-17.1,15.9-39,15.5-53.4
	c-0.1-2.4-0.2-4.9-0.2-7.5v-93.4h22.5c42.6,0,77.3-34.7,77.3-77.3V713.8c0-42.6-34.7-77.2-77.3-77.2h-22.5v-99.4
	c0-42.6-34.7-77.2-77.3-77.2h-45.8v-90.2c0-37.5-30.5-68-68-68H382.9c-68.9,0-124.9,56-124.9,124.9L258,1038.2L258,1038.2z
	 M382.9,383.4h471.9v76.5H383c-10.2,0-43.4-2.4-43.4-33.2C339.6,402.8,359,383.4,382.9,383.4z M339.6,541.5h638.3v95h-107
	c-42.6,0-77.3,34.7-77.3,77.2v153.8c0,42.6,34.7,77.3,77.3,77.3h107v89H339.6V541.5z M875.2,863.2v-145h202.4v145H875.2z"/>
</svg>
